<?xml version="1.0" standalone="no"?>
<!DOCTYPE svg PUBLIC "-//W3C//DTD SVG 20010904//EN"
 "http://www.w3.org/TR/2001/REC-SVG-20010904/DTD/svg10.dtd">
<svg version="1.0" xmlns="http://www.w3.org/2000/svg"
 width="550.000000pt" height="262.000000pt" viewBox="0 0 550.000000 262.000000"
 preserveAspectRatio="xMidYMid meet">

<g transform="translate(0.000000,262.000000) scale(0.100000,-0.100000)"
fill="#000000" stroke="none">
<path d="M4415 1188 c-22 -5 -53 -20 -68 -34 l-27 -25 0 26 0 25 -365 0 -365
0 0 -27 c-1 -16 -1 -91 -2 -168 l0 -140 -15 155 c-8 85 -16 161 -19 168 -3 9
-28 12 -101 10 l-98 -3 -13 -160 c-20 -251 -29 -263 -28 -40 l1 200 -415 5
c-328 5 -420 3 -437 -7 -90 -52 -112 -416 -33 -550 26 -43 26 -43 -10 -43
l-30 0 0 -255 0 -255 72 0 c39 0 86 -5 104 -12 27 -9 37 -8 65 8 31 18 49 45
78 114 8 20 10 12 8 -43 l-2 -67 803 0 802 0 0 21 c0 20 1 20 30 -5 34 -28 86
-42 120 -31 40 13 88 65 106 115 l17 49 17 -50 c43 -125 150 -154 230 -63 l30
35 0 -36 0 -35 72 0 c39 0 85 -5 102 -11 23 -8 39 -8 61 1 19 7 95 11 213 10
l182 -1 0 270 0 270 -32 3 c-43 4 -45 32 -3 36 l30 3 -3 264 -3 265 -232 2
c-128 1 -250 2 -272 1 -22 -1 -127 -1 -233 -2 -185 0 -194 -1 -199 -20 -5 -20
-5 -20 -22 -1 -22 27 -68 38 -116 28z m-1492 -35 l377 -3 0 -235 0 -235 -30 0
c-29 0 -30 -1 -30 -50 0 -49 1 -50 30 -50 l30 0 0 -62 c0 -34 2 -59 4 -57 3 2
16 135 30 294 14 160 29 314 32 343 l6 52 84 0 c80 0 84 -1 85 -22 0 -13 15
-171 32 -353 28 -293 34 -330 50 -333 16 -3 17 9 15 185 -2 144 -6 187 -15
186 -10 -2 -13 36 -13 167 l0 170 345 0 345 0 0 -62 1 -63 14 38 c44 125 190
138 241 22 l13 -30 1 48 0 47 170 0 c167 0 170 0 170 -21 0 -21 1 -21 23 3 30
32 60 42 86 29 12 -7 105 -11 240 -11 l221 0 0 -235 0 -235 -30 0 c-29 0 -30
-1 -30 -50 0 -49 1 -50 30 -50 l30 0 0 -240 0 -240 -160 0 -160 0 0 28 -1 27
-15 -27 c-8 -15 -23 -32 -34 -38 -24 -13 -67 -13 -75 0 -3 6 -37 10 -76 10
l-69 0 0 225 0 225 51 0 51 0 -36 41 c-33 39 -64 108 -68 153 -1 12 -5 -103
-8 -254 -5 -232 -9 -282 -24 -318 -40 -94 -126 -121 -188 -59 -56 56 -60 82
-67 407 l-6 295 -5 -280 c-6 -309 -13 -352 -64 -411 -64 -74 -171 -50 -208 46
l-17 45 0 -57 -1 -58 -660 0 -660 0 0 170 c0 144 2 170 15 170 12 0 15 18 15
101 l0 100 -47 -3 -48 -3 -3 -93 c-2 -87 -1 -94 18 -99 19 -5 20 -14 20 -174
l0 -169 -110 0 -110 0 0 170 c0 163 1 170 20 170 19 0 20 7 20 100 l0 100 -45
0 c-25 0 -45 -3 -45 -7 1 -5 7 -35 15 -68 17 -71 19 -247 4 -330 -13 -70 -41
-130 -68 -145 -25 -13 -68 -13 -76 0 -3 6 -37 10 -76 10 l-69 0 0 225 0 225
51 0 51 0 -36 41 c-57 67 -71 122 -71 284 0 159 13 220 57 267 24 25 32 29 56
22 15 -4 197 -9 405 -11z m696 -500 c-2 -127 -2 -132 -9 -63 -22 208 -21 200
-5 200 13 0 15 -20 14 -137z m-311 -20 c-2 -10 -13 -19 -26 -21 -17 -3 -22 2
-22 17 0 16 6 21 26 21 19 0 25 -5 22 -17z m1607 -23 c15 -29 15 -30 -5 -30
-16 0 -20 7 -20 30 0 17 2 30 5 30 2 0 11 -13 20 -30z m-2165 -70 c0 -41 -4
-70 -10 -70 -13 0 -17 12 -24 83 -6 52 -5 57 14 57 18 0 20 -7 20 -70z m248
-2 l3 -68 -36 0 -35 0 0 71 0 70 33 -3 32 -3 3 -67z"/>
<path d="M2471 1099 c-28 -30 -41 -103 -41 -228 0 -141 16 -194 80 -264 54
-60 70 -91 70 -142 0 -46 -9 -65 -30 -65 -22 0 -30 19 -30 71 l0 39 -45 0 -45
0 0 -185 0 -185 46 0 c44 0 46 1 42 24 -5 22 -3 22 27 -10 47 -49 74 -44 107
20 18 35 22 63 26 187 6 184 -7 234 -77 311 -59 65 -73 91 -73 135 0 68 37 62
44 -6 3 -32 5 -34 46 -38 l42 -4 0 175 0 176 -40 0 c-37 0 -40 -2 -40 -27 l0
-28 -20 33 c-24 38 -59 43 -89 11z"/>
<path d="M4370 1092 c-44 -44 -52 -105 -55 -417 -5 -417 9 -511 83 -542 78
-32 132 14 153 129 18 99 17 624 -1 728 -16 94 -46 130 -110 130 -32 0 -48 -6
-70 -28z m95 -462 c0 -154 -3 -212 -12 -222 -10 -9 -16 -9 -25 0 -20 20 -18
413 1 436 30 36 36 0 36 -214z"/>
<path d="M4951 1099 c-28 -30 -41 -103 -41 -228 0 -143 15 -192 85 -270 54
-61 70 -99 63 -156 -3 -29 -31 -55 -45 -42 -4 4 -10 29 -13 55 l-5 47 -42 3
-43 3 0 -185 0 -186 46 0 c44 0 46 1 42 24 -5 22 -3 22 27 -10 49 -52 83 -42
112 33 15 39 18 77 18 203 0 101 -4 168 -13 192 -7 20 -39 66 -71 102 -62 70
-81 119 -61 157 16 29 38 8 42 -39 3 -36 4 -37 46 -38 l42 -1 0 173 0 174 -40
0 c-37 0 -40 -2 -40 -27 l0 -28 -20 33 c-24 38 -59 43 -89 11z"/>
<path d="M2700 895 l0 -215 25 0 c25 0 25 1 25 91 0 88 1 90 23 87 22 -3 22
-3 25 -230 2 -223 2 -228 -18 -228 -19 0 -20 -6 -20 -130 l0 -130 80 0 80 0 0
130 c0 109 -2 130 -15 130 -13 0 -15 32 -15 230 0 223 1 230 20 230 19 0 20
-7 20 -90 0 -89 0 -90 25 -90 l25 0 0 215 0 215 -140 0 -140 0 0 -215z"/>
<path d="M3010 985 c0 -104 2 -125 15 -125 13 0 15 -32 15 -230 0 -198 -2
-230 -15 -230 -13 0 -15 -21 -15 -130 l0 -130 135 0 135 0 0 200 0 200 -45 0
-45 0 0 -70 0 -70 -30 0 -30 0 0 95 0 95 40 0 40 0 0 50 0 50 -40 0 -40 0 0
85 0 85 30 0 30 0 0 -70 0 -70 40 0 40 0 0 195 0 195 -130 0 -130 0 0 -125z"/>
<path d="M3396 1098 c-3 -7 -16 -146 -31 -308 -33 -381 -35 -390 -51 -390 -11
0 -14 -27 -14 -130 l0 -130 65 0 65 0 0 130 c0 111 -2 130 -15 130 -13 0 -15
11 -13 63 l3 62 38 3 37 3 0 -65 c0 -52 -3 -66 -15 -66 -13 0 -15 -21 -15
-130 l0 -130 80 0 80 0 0 130 c0 109 -2 130 -15 130 -9 0 -15 9 -16 23 0 12
-15 171 -32 352 l-32 330 -58 3 c-40 2 -58 -1 -61 -10z m63 -415 c1 -49 -1
-53 -22 -53 l-23 0 12 123 c7 67 13 124 15 127 3 7 16 -134 18 -197z"/>
<path d="M3637 1103 c-4 -3 -7 -60 -7 -125 0 -98 3 -118 15 -118 18 0 17 21
18 -242 2 -199 1 -217 -15 -222 -16 -4 -18 -19 -18 -130 l0 -126 75 0 75 0 0
130 c0 80 -4 130 -10 130 -12 0 -12 123 0 160 4 14 9 23 10 20 1 -3 11 -44 24
-92 18 -69 20 -88 9 -88 -10 0 -13 -28 -13 -130 l0 -130 70 0 70 0 0 126 c0
99 -3 129 -14 138 -8 6 -31 76 -51 155 l-36 145 28 74 c17 47 35 77 46 80 15
4 17 19 17 128 l0 124 -65 0 -65 0 0 -125 c0 -107 2 -125 16 -125 9 0 14 -3
12 -8 -1 -4 -16 -41 -33 -82 l-30 -75 -3 80 c-2 49 1 81 8 83 6 2 10 50 10
128 l0 124 -68 0 c-38 0 -72 -3 -75 -7z"/>
<path d="M3970 985 c0 -104 2 -125 15 -125 13 0 15 -32 15 -230 0 -198 -2
-230 -15 -230 -13 0 -15 -21 -15 -130 l0 -130 70 0 70 0 0 130 c0 86 -4 130
-11 130 -7 0 -9 31 -7 93 l3 92 28 3 27 3 0 -95 c0 -52 -4 -98 -10 -101 -6 -4
-10 -58 -10 -131 l0 -124 70 0 70 0 0 130 c0 109 -2 130 -15 130 -13 0 -15 32
-15 230 0 198 2 230 15 230 13 0 15 21 15 125 l0 126 -67 -3 -68 -3 -3 -122
c-2 -80 1 -123 8 -123 6 0 10 -33 10 -85 l0 -85 -30 0 -30 0 0 79 c0 44 5 83
10 86 6 4 10 58 10 131 l0 124 -70 0 -70 0 0 -125z"/>
<path d="M4600 985 c0 -102 3 -125 14 -125 12 0 15 -50 18 -317 3 -289 5 -322
22 -356 50 -101 159 -77 186 39 5 21 10 173 10 337 0 257 2 297 15 297 13 0
15 21 15 125 l0 125 -60 0 -60 0 0 -125 c0 -82 4 -125 11 -125 16 0 8 -435 -8
-452 -10 -9 -16 -9 -25 0 -17 17 -25 452 -9 452 7 0 11 42 11 125 l0 125 -70
0 -70 0 0 -125z"/>
<path d="M5190 985 c0 -104 2 -125 15 -125 13 0 15 -32 15 -230 0 -198 -2
-230 -15 -230 -13 0 -15 -21 -15 -130 l0 -130 135 0 135 0 0 200 0 200 -45 0
-45 0 0 -70 0 -70 -30 0 -31 0 3 93 3 92 38 3 37 3 0 50 0 49 -40 0 -40 0 0
85 0 85 30 0 30 0 0 -70 0 -70 40 0 40 0 0 195 0 195 -130 0 -130 0 0 -125z"/>
<path d="M3939 812 c-22 -2 -31 -13 -48 -55 l-22 -52 33 -133 c29 -119 35
-133 53 -130 19 3 20 11 23 182 1 99 -1 182 -5 186 -5 3 -20 4 -34 2z m21
-182 c0 -88 -3 -160 -7 -160 -5 0 -20 52 -35 115 -26 109 -26 116 -12 159 12
33 21 46 35 46 18 0 19 -9 19 -160z"/>
<path d="M3163 770 c0 -25 2 -35 4 -22 2 12 2 32 0 45 -2 12 -4 2 -4 -23z"/>
<path d="M4270 625 c0 -102 4 -185 9 -185 5 0 8 83 8 185 0 102 -4 185 -8 185
-5 0 -9 -83 -9 -185z"/>
<path d="M5170 765 l0 -45 -41 0 -41 0 28 -32 c36 -43 55 -91 64 -158 5 -39 8
-6 9 113 1 105 -3 167 -9 167 -5 0 -10 -20 -10 -45z m3 -97 c9 -31 2 -33 -17
-3 -13 20 -14 25 -2 25 7 0 16 -10 19 -22z"/>
<path d="M5343 770 c0 -25 2 -35 4 -22 2 12 2 32 0 45 -2 12 -4 2 -4 -23z"/>
<path d="M2631 693 c13 -16 27 -32 31 -37 5 -6 8 7 8 27 0 35 -2 37 -32 37
l-31 0 24 -27z"/>
<path d="M3163 490 c0 -30 2 -43 4 -27 2 15 2 39 0 55 -2 15 -4 2 -4 -28z"/>
<path d="M5343 490 c0 -30 2 -43 4 -27 2 15 2 39 0 55 -2 15 -4 2 -4 -28z"/>
<path d="M2542 480 c0 -14 2 -19 5 -12 2 6 2 18 0 25 -3 6 -5 1 -5 -13z"/>
<path d="M5022 475 c0 -16 2 -22 5 -12 2 9 2 23 0 30 -3 6 -5 -1 -5 -18z"/>
<path d="M3430 465 c0 -14 5 -25 10 -25 6 0 10 11 10 25 0 14 -4 25 -10 25 -5
0 -10 -11 -10 -25z"/>
<path d="M410 1183 c-8 -3 -25 -15 -37 -26 l-23 -20 0 21 c0 22 -2 22 -175 22
l-175 0 0 -195 c0 -167 2 -195 15 -195 13 0 15 -24 15 -160 0 -136 -2 -160
-15 -160 -13 0 -15 -29 -15 -200 l0 -200 125 0 125 0 0 200 c0 193 -1 200 -20
200 -11 0 -20 7 -20 15 0 11 11 15 40 15 l40 0 0 -77 c1 -164 32 -296 81 -337
57 -48 147 -42 189 11 l20 26 0 -27 0 -26 694 0 c453 0 704 -4 722 -10 40 -15
89 4 114 45 57 93 68 400 18 523 -24 58 -25 62 -7 62 18 0 19 11 20 178 1 178
-1 306 -4 308 -5 5 -288 7 -744 6 l-513 -2 0 -195 c0 -167 2 -195 15 -195 12
0 15 -14 15 -65 l0 -65 -55 0 -55 0 0 65 c0 51 3 65 15 65 13 0 15 28 15 195
l0 195 -125 0 -125 0 0 -27 -1 -28 -17 21 c-10 12 -27 26 -39 33 -22 11 -86
14 -113 4z m93 -27 c43 -18 66 -45 82 -98 l14 -43 0 68 1 67 105 0 105 0 0
-170 c0 -144 -2 -170 -15 -170 -13 0 -15 -27 -13 -187 1 -105 4 -145 5 -90 l4
97 64 0 64 0 4 -92 c1 -51 4 -11 5 90 2 156 0 182 -13 182 -13 0 -15 26 -15
170 l0 170 485 0 c437 0 485 -2 485 -16 0 -12 7 -10 32 11 23 19 37 24 52 19
12 -4 54 -9 94 -11 l72 -5 0 -214 0 -214 -40 0 -41 0 21 -22 c67 -72 84 -145
77 -339 -5 -163 -16 -210 -58 -252 -25 -25 -35 -28 -62 -22 -18 4 -65 9 -104
12 l-73 5 0 224 0 224 50 0 50 0 -33 44 c-31 43 -34 45 -84 45 l-53 1 0 -100
c0 -82 3 -100 15 -100 13 0 15 -26 15 -170 l0 -170 -105 0 -105 0 0 170 c0
144 2 170 15 170 8 0 15 6 15 13 1 6 1 50 2 97 l2 85 -46 3 c-36 2 -47 7 -51
23 -3 10 -12 19 -21 19 -13 0 -16 -11 -16 -50 l0 -50 35 0 35 0 0 -240 0 -240
-480 0 -480 0 -1 63 c0 34 -3 55 -6 47 -32 -93 -71 -130 -135 -130 -55 0 -93
31 -119 97 -20 52 -23 80 -27 268 -4 200 -9 234 -34 219 -4 -3 -8 -36 -8 -75
l0 -69 -40 0 -40 0 0 -40 c0 -33 3 -40 20 -40 19 0 20 -7 20 -170 l0 -170
-105 0 -105 0 0 170 c0 144 2 170 15 170 13 0 15 27 15 185 0 158 -2 185 -15
185 -13 0 -15 26 -15 170 l0 170 154 0 155 0 3 -42 c3 -41 4 -42 15 -18 13 30
40 56 73 69 34 13 46 13 83 -3z m1107 -616 c0 -63 -2 -70 -20 -70 -18 0 -20 7
-20 63 0 66 4 77 27 77 10 0 13 -18 13 -70z m268 53 c2 -9 -7 -13 -27 -13 -31
0 -31 0 -31 -55 0 -42 -3 -55 -15 -55 -12 0 -15 15 -15 71 l0 70 42 -3 c23 -2
43 -9 46 -15z"/>
<path d="M397 1100 c-49 -39 -52 -65 -52 -475 0 -283 3 -389 13 -416 31 -87
118 -113 172 -52 48 54 55 112 55 468 0 359 -8 419 -55 467 -35 35 -94 38
-133 8z m91 -477 c-3 -207 -10 -245 -40 -215 -20 20 -18 413 1 436 14 17 16
17 28 -1 11 -14 13 -62 11 -220z"/>
<path d="M1901 1094 c-29 -37 -36 -81 -36 -229 0 -153 13 -192 91 -275 45 -49
48 -55 52 -116 4 -54 2 -65 -13 -70 -25 -10 -45 21 -45 68 0 38 0 38 -40 38
l-40 0 0 -185 0 -185 40 0 c37 0 40 2 40 28 l0 27 19 -32 c36 -58 90 -52 118
14 36 88 36 347 -1 425 -9 18 -41 62 -71 97 -53 60 -56 66 -53 110 4 63 29 63
43 0 10 -45 10 -46 50 -45 l40 1 0 170 0 170 -40 0 c-35 0 -40 -3 -39 -22 0
-13 -3 -23 -8 -23 -4 0 -8 6 -8 13 0 20 -33 47 -58 47 -11 0 -30 -12 -41 -26z"/>
<path d="M40 986 c0 -115 1 -124 20 -129 19 -5 20 -13 19 -231 -2 -214 -3
-226 -20 -226 -18 0 -19 -10 -19 -130 l0 -130 80 0 80 0 0 130 c0 109 -2 130
-15 130 -12 0 -15 16 -15 85 l0 85 41 0 40 0 -4 48 c-3 46 -4 47 -40 50 l-37
3 0 95 c0 94 0 94 25 94 24 0 25 -2 25 -75 l0 -75 40 0 40 0 0 200 0 200 -130
0 -130 0 0 -124z"/>
<path d="M630 985 c0 -104 2 -125 15 -125 13 0 15 -32 15 -230 0 -198 -2 -230
-15 -230 -13 0 -15 -21 -15 -130 l0 -130 135 0 135 0 -2 222 -3 223 -40 0 -40
0 -3 -92 -3 -93 -29 0 -30 0 0 230 c0 224 0 230 20 230 20 0 20 5 18 123 l-3
122 -77 3 -78 3 0 -126z"/>
<path d="M927 1103 c-4 -3 -7 -59 -7 -124 0 -108 1 -117 20 -122 19 -5 20 -14
20 -230 0 -216 -1 -225 -20 -230 -19 -5 -20 -14 -20 -131 l0 -126 75 0 75 0 0
130 c0 80 -4 130 -10 130 -12 0 -12 122 0 160 9 30 12 24 39 -82 16 -64 16
-78 5 -78 -11 0 -14 -25 -14 -130 l0 -130 70 0 70 0 0 130 c0 97 -3 130 -12
130 -8 0 -27 58 -51 155 l-37 154 29 73 c17 43 35 74 45 76 14 3 16 21 16 128
l0 124 -65 0 -65 0 0 -125 c0 -108 2 -125 16 -125 9 0 14 -6 11 -12 -3 -7 -18
-44 -33 -82 l-29 -70 -3 79 c-2 49 1 81 8 83 6 2 10 50 10 128 l0 124 -68 0
c-38 0 -72 -3 -75 -7z"/>
<path d="M1260 985 c0 -104 2 -125 15 -125 13 0 15 -32 15 -230 0 -198 -2
-230 -15 -230 -13 0 -15 -21 -15 -130 l0 -130 135 0 135 0 0 200 0 200 -40 0
-40 0 0 -70 0 -70 -30 0 -30 0 0 95 0 95 39 0 38 0 -1 48 c-1 47 -1 47 -38 50
l-38 3 0 85 0 84 30 0 30 0 0 -70 0 -70 35 0 35 0 0 195 0 195 -130 0 -130 0
0 -125z"/>
<path d="M1557 1103 c-4 -3 -7 -100 -7 -215 l0 -208 30 0 30 0 0 90 c0 83 1
90 20 90 19 0 20 -7 20 -230 0 -198 -2 -230 -15 -230 -13 0 -15 -21 -15 -130
l0 -130 80 0 80 0 0 126 c0 117 -1 126 -20 131 -19 5 -20 14 -20 234 0 222 1
229 20 229 19 0 20 -7 20 -90 l0 -90 30 0 30 0 0 215 0 215 -138 0 c-76 0
-142 -3 -145 -7z"/>
<path d="M1196 791 c-37 -72 -37 -90 -2 -221 28 -108 36 -125 54 -128 22 -3
22 -2 22 181 l0 185 -31 4 c-25 4 -32 0 -43 -21z m54 -163 c0 -91 -4 -158 -9
-153 -4 6 -20 58 -34 116 -25 102 -26 109 -11 153 11 33 21 46 35 46 18 0 19
-9 19 -162z"/>
<path d="M615 625 c0 -102 3 -185 8 -185 4 0 7 83 7 185 0 102 -3 185 -7 185
-5 0 -8 -83 -8 -185z"/>
<path d="M1413 770 c0 -25 2 -35 4 -22 2 12 2 32 0 45 -2 12 -4 2 -4 -23z"/>
<path d="M1413 490 c0 -30 2 -43 4 -27 2 15 2 39 0 55 -2 15 -4 2 -4 -28z"/>
<path d="M1982 470 c0 -14 2 -19 5 -12 2 6 2 18 0 25 -3 6 -5 1 -5 -13z"/>
</g>
</svg>
